<?xml version="1.0" standalone="no"?>
<!DOCTYPE svg PUBLIC "-//W3C//DTD SVG 20010904//EN"
 "http://www.w3.org/TR/2001/REC-SVG-20010904/DTD/svg10.dtd">
<svg version="1.0" xmlns="http://www.w3.org/2000/svg"
 width="501.000000pt" height="501.000000pt" viewBox="0 0 501.000000 501.000000"
 preserveAspectRatio="xMidYMid meet">
<metadata>
Created by potrace 1.11, written by Peter Selinger 2001-2013
</metadata>
<g transform="translate(0.000000,501.000000) scale(0.100000,-0.100000)"
fill="#000000" stroke="none">
<path d="M1370 5006 c0 -3 7 -33 14 -68 8 -35 17 -75 20 -91 3 -15 7 -35 11
-45 11 -35 17 -128 22 -307 3 -115 9 -185 16 -194 9 -12 9 -13 0 -7 -20 12
-16 -1 21 -58 29 -45 31 -53 15 -49 -10 3 -20 13 -20 22 -1 9 -5 -6 -10 -34
-6 -39 -15 -56 -41 -77 -18 -15 -30 -28 -25 -28 9 0 -15 -24 -79 -77 -106 -88
-194 -243 -180 -317 9 -49 -19 -167 -59 -244 -59 -112 -87 -196 -79 -237 3
-19 10 -35 14 -35 4 0 10 -30 13 -66 6 -61 11 -72 62 -139 47 -61 57 -81 60
-119 1 -25 11 -58 21 -73 11 -16 25 -55 31 -88 7 -33 19 -91 27 -130 14 -69
24 -104 53 -176 18 -44 14 -86 -7 -80 -61 15 -100 12 -129 -8 -34 -25 -46 -79
-15 -67 9 4 25 4 34 1 15 -5 19 -24 25 -118 l8 -112 13 50 c7 28 13 67 13 87
1 21 9 47 19 58 17 21 17 21 22 -7 5 -25 9 -28 43 -25 42 3 46 -6 22 -51 -9
-17 -12 -35 -7 -45 10 -20 8 -110 -1 -132 -4 -9 -2 -24 6 -34 11 -15 17 -16
40 -5 24 11 26 16 21 49 -6 36 8 80 25 80 12 0 30 -70 37 -141 3 -35 12 -85
20 -110 25 -80 16 -130 -26 -144 -41 -14 -42 -18 -10 -38 l31 -20 -4 -121 c-5
-141 -12 -176 -43 -230 -67 -117 -72 -140 -50 -243 8 -37 36 -83 51 -83 8 0
15 -6 15 -13 0 -8 9 -22 20 -32 29 -26 25 -32 -22 -43 -107 -25 -199 -57 -408
-142 -289 -118 -321 -130 -342 -130 -10 0 -37 13 -60 29 -27 19 -47 26 -52 20
-15 -14 -26 -11 -26 9 0 14 -2 15 -10 2 -9 -13 -10 -13 -10 0 0 12 -2 12 -9 2
-6 -11 -10 -10 -15 4 -4 12 -10 14 -17 7 -12 -12 -61 -4 -53 9 3 5 -2 8 -12 7
-31 -5 -68 12 -97 44 -15 17 -27 35 -27 39 0 5 -11 24 -25 42 -14 18 -25 39
-25 47 0 8 -13 26 -30 39 -16 14 -29 30 -30 36 0 6 -11 20 -25 32 -14 12 -25
27 -25 32 0 6 -24 22 -54 35 -30 13 -59 32 -65 42 -7 13 -10 -132 -11 -489 l0
-508 950 0 c523 0 950 2 950 4 0 3 -5 17 -11 33 -6 15 -12 39 -14 53 -1 14 -8
48 -15 75 -6 28 -16 66 -21 85 -4 19 -9 40 -10 45 0 6 -6 16 -12 24 -7 8 -13
35 -14 60 -1 58 -10 108 -20 124 -4 6 -8 44 -9 82 -1 39 -4 91 -7 117 -4 35
-1 48 10 52 8 4 19 4 24 0 5 -3 9 1 9 8 1 7 12 0 26 -17 15 -16 23 -24 20 -18
-5 9 -2 11 8 7 9 -3 16 -15 16 -25 0 -10 5 -19 10 -19 6 0 13 -8 17 -17 9 -25
100 -109 113 -105 6 2 19 -3 28 -12 65 -60 83 -75 100 -80 10 -4 33 -24 51
-46 18 -22 38 -40 45 -40 14 0 56 -45 56 -60 0 -15 18 -12 27 4 9 15 71 27 79
15 9 -15 65 12 62 30 -2 10 5 17 19 19 12 2 38 19 58 38 33 31 75 48 60 24 -3
-5 -2 -10 4 -10 5 0 11 5 13 12 3 7 29 12 66 13 34 1 68 8 77 15 13 11 18 11
24 1 7 -10 13 -10 30 -2 11 7 21 16 21 22 0 6 4 7 10 4 8 -5 56 19 70 35 9 10
77 40 92 40 7 0 22 12 33 26 23 29 96 110 172 191 29 30 50 60 47 65 -4 6 -28
-13 -54 -41 -31 -33 -50 -47 -53 -39 -4 9 -6 8 -6 -3 -1 -9 -22 -39 -47 -65
-37 -39 -45 -44 -39 -24 7 23 7 23 -9 7 -10 -9 -14 -22 -10 -28 4 -7 0 -9 -13
-5 -14 4 -32 -5 -63 -34 -24 -22 -51 -40 -61 -40 -10 0 -21 -5 -24 -10 -4 -6
-11 -8 -16 -4 -5 3 -6 10 -3 16 8 13 -39 -1 -47 -15 -4 -5 -11 -7 -15 -5 -5 3
-18 2 -29 -2 -13 -5 -26 -2 -37 7 -15 13 -16 13 -11 -6 3 -12 1 -21 -6 -21 -6
0 -11 7 -11 17 0 15 -1 15 -19 -1 -17 -16 -19 -16 -25 0 -4 11 -13 14 -27 11
-12 -3 -28 0 -36 9 -17 17 -33 18 -33 3 0 -5 5 -7 10 -4 6 3 10 0 10 -8 0 -24
-40 -28 -63 -6 -12 11 -23 15 -25 9 -2 -5 -9 -7 -15 -3 -7 3 -8 2 -4 -3 5 -5
13 -9 18 -9 5 0 9 -4 8 -10 0 -12 -26 -10 -65 6 -16 7 -34 11 -40 10 -7 -1
-14 8 -17 20 -3 11 -10 18 -15 15 -5 -3 -12 4 -15 16 -5 17 -9 19 -20 10 -11
-9 -16 -7 -27 12 -7 14 -18 22 -25 20 -15 -6 -45 22 -45 41 0 9 -6 12 -15 9
-9 -4 -15 0 -15 10 0 9 -4 16 -10 16 -5 0 -10 11 -10 24 0 13 -7 27 -16 30 -8
3 -13 10 -10 15 3 5 -4 11 -16 14 -18 5 -20 11 -15 41 6 36 -8 52 -16 19 -3
-15 -6 -14 -15 7 -6 14 -11 21 -11 16 -1 -5 -10 3 -21 17 -11 14 -17 32 -14
41 3 9 1 16 -6 16 -6 0 -9 4 -6 9 4 5 -3 7 -14 4 -11 -3 -20 -1 -20 5 0 15
-39 6 -61 -14 -17 -15 -19 -15 -19 -1 0 9 -9 19 -20 22 -11 3 -20 13 -20 21 0
8 -5 14 -11 14 -6 0 -9 7 -6 14 4 10 1 13 -9 9 -7 -3 -14 0 -14 6 0 19 -4 25
-25 46 -31 29 -54 81 -48 106 5 18 3 21 -10 16 -13 -5 -17 -1 -17 17 0 13 -9
43 -20 67 -12 28 -16 47 -10 53 6 6 10 15 10 21 0 5 -4 4 -9 -4 -7 -11 -11 -9
-20 8 -7 12 -13 34 -14 50 -2 22 -5 27 -15 19 -9 -8 -11 -7 -6 6 4 9 1 16 -6
16 -7 0 -10 8 -7 20 3 11 1 20 -4 20 -5 0 -9 8 -9 18 0 9 -7 26 -15 36 -14 19
-15 18 -11 -12 4 -35 -9 -51 -26 -34 -8 8 -17 8 -31 0 -19 -10 -18 -11 12 -25
17 -9 31 -22 31 -29 0 -21 -15 -17 -34 9 -17 22 -17 21 -12 -18 3 -22 9 -53
12 -70 13 -59 -6 -17 -26 56 -21 81 -25 116 -11 121 9 3 2 57 -25 179 -8 37
-14 80 -14 96 0 16 -4 33 -9 39 -5 5 -21 50 -37 99 -33 107 -35 169 -11 390 9
83 17 162 17 178 0 15 6 30 15 33 8 3 12 10 9 16 -3 5 3 4 15 -4 16 -10 21
-24 22 -58 1 -25 2 -52 3 -60 2 -8 3 -23 4 -32 1 -10 7 -18 12 -18 6 0 10 8
11 18 0 15 1 15 8 -2 7 -19 8 -19 15 -1 3 10 2 23 -4 29 -21 21 -8 36 51 54
33 10 68 25 77 33 19 16 80 39 104 39 9 0 19 7 22 17 6 14 20 15 119 10 61 -4
123 -10 137 -14 22 -7 19 -9 -20 -13 l-45 -5 64 -12 c65 -13 168 -65 181 -93
34 -73 43 -87 56 -87 18 0 28 38 21 83 -6 38 -46 92 -83 111 -12 7 -25 21 -29
31 -3 11 -30 36 -60 56 -35 24 -52 43 -48 52 3 8 0 14 -7 14 -6 0 -8 -4 -5
-10 10 -16 -18 -12 -45 7 -23 16 -86 19 -195 9 -90 -9 -176 -38 -218 -75 -18
-15 -18 -14 -12 24 4 22 14 58 21 80 17 50 17 55 0 55 -11 0 -13 7 -7 28 4 15
7 46 6 69 -1 32 4 48 20 63 19 18 120 60 144 60 5 0 20 4 33 9 13 5 25 9 28 9
24 4 182 67 223 88 126 67 273 225 314 339 6 17 14 38 18 48 6 14 4 16 -10 11
-13 -5 -16 -3 -13 7 2 8 17 15 31 17 27 3 53 35 42 52 -3 5 1 12 8 17 18 10
48 69 40 77 -4 3 -2 6 4 6 6 0 14 7 17 16 6 16 0 14 -47 -18 -15 -11 -25 -23
-23 -27 5 -8 -47 -51 -61 -51 -10 0 -93 -85 -114 -116 -8 -11 -34 -43 -58 -70
-39 -44 -43 -46 -37 -21 l7 28 -27 -18 c-15 -9 -33 -18 -40 -19 -19 -3 66 94
132 150 54 47 67 65 105 148 11 26 28 49 36 53 27 10 29 -6 3 -27 -14 -11 -19
-17 -12 -13 24 12 12 -16 -20 -46 -19 -17 -24 -26 -13 -20 11 5 56 47 100 93
44 46 71 76 61 68 -18 -14 -19 -13 -13 3 5 13 1 17 -17 17 -14 0 -27 6 -30 13
-5 12 -27 -8 -53 -49 -10 -17 -11 -16 -6 6 16 72 108 134 216 145 31 4 57 10
57 15 0 4 -12 7 -27 6 -84 -8 -129 -21 -176 -54 -29 -19 -44 -26 -34 -15 9 11
17 27 17 35 0 17 24 41 32 33 2 -3 41 6 86 19 45 13 79 20 76 15 -3 -5 3 -9
13 -10 10 0 32 -3 48 -6 17 -3 40 -5 52 -5 13 0 20 -5 17 -10 -4 -5 -20 -8
-36 -6 -16 3 -31 1 -34 -4 -3 -4 4 -8 16 -8 12 0 34 -7 51 -15 16 -9 34 -13
39 -10 6 3 10 1 10 -4 0 -6 -7 -11 -15 -11 -17 0 -85 -57 -85 -72 0 -15 79
-46 110 -42 18 2 30 -2 34 -12 3 -8 10 -13 15 -9 5 3 12 1 16 -5 8 -13 -11
-13 -35 0 -13 7 -21 6 -30 -4 -9 -12 -7 -14 12 -9 18 4 20 3 8 -6 -12 -8 -7
-11 22 -11 44 0 57 -16 32 -36 -17 -14 -16 -14 16 -8 19 3 46 16 60 28 24 20
24 20 7 0 -21 -25 -22 -34 -2 -34 12 0 12 -3 -2 -20 -13 -14 -30 -20 -61 -20
-24 0 -41 -4 -37 -9 3 -5 -5 -12 -17 -14 -17 -3 -14 -5 10 -6 20 0 31 -5 27
-11 -8 -14 71 -2 106 16 36 18 70 12 142 -26 87 -46 136 -62 155 -51 12 7 21
4 33 -10 9 -11 27 -18 40 -17 19 3 23 -2 25 -24 2 -20 -3 -29 -18 -34 -15 -4
-17 -8 -8 -14 9 -6 8 -10 -5 -17 -15 -9 -14 -11 9 -17 31 -8 34 -22 5 -31 -17
-6 -19 -9 -8 -17 10 -7 7 -8 -11 -4 -22 4 -23 4 -8 -8 10 -7 15 -16 11 -19 -3
-4 2 -8 13 -9 10 -1 28 -2 39 -3 11 -1 28 -3 37 -4 23 -2 36 -84 17 -108 -12
-15 -12 -16 4 -10 14 5 17 1 17 -23 0 -16 5 -32 10 -35 6 -4 8 -10 5 -15 -3
-5 -1 -17 4 -27 44 -83 80 -214 81 -293 0 -25 4 -61 9 -80 5 -19 12 -84 15
-145 6 -116 17 -221 36 -343 7 -41 9 -84 6 -97 -3 -13 -2 -26 3 -29 12 -8 32
96 40 204 5 58 13 97 27 120 l20 34 79 1 c76 0 82 2 130 37 27 20 53 34 57 32
12 -7 36 38 42 80 6 39 -20 146 -36 146 -4 0 -19 18 -34 39 -14 22 -31 38 -39
35 -15 -6 -28 23 -14 31 5 4 9 32 9 63 -1 64 6 185 16 282 4 36 6 84 5 107 -1
23 3 51 9 63 9 17 7 29 -14 67 -14 25 -26 51 -26 57 0 6 -11 34 -25 61 -13 28
-25 61 -25 73 0 61 -33 131 -102 222 -39 52 -82 118 -95 145 -45 96 -171 246
-205 245 -8 -1 -4 -9 10 -19 12 -11 22 -22 22 -26 0 -10 -49 29 -50 41 0 13
-84 54 -111 54 -11 0 -43 13 -72 29 -29 16 -66 32 -83 35 -17 4 -41 18 -54 31
-14 15 -39 26 -71 30 -27 4 -49 11 -49 17 0 5 8 7 18 4 9 -3 24 -1 32 4 16 10
14 11 -45 14 -11 1 -35 9 -52 19 -18 10 -33 13 -33 8 0 -5 3 -11 8 -14 4 -2 1
-2 -6 0 -8 1 -22 3 -32 3 -13 0 -17 5 -13 19 7 26 -12 35 -32 15 -24 -24 -83
-29 -106 -8 -10 9 -16 21 -13 25 3 5 -6 9 -20 9 -13 0 -26 4 -28 10 -1 5 -26
10 -55 11 -29 1 -50 6 -47 11 3 5 -1 17 -9 26 -8 9 -15 35 -15 57 -1 22 -3 49
-6 60 -2 11 -5 23 -5 28 -1 4 -5 7 -10 7 -5 0 -8 -11 -6 -25 1 -14 -2 -28 -7
-31 -4 -3 -6 -9 -3 -14 7 -11 -22 -33 -37 -27 -20 7 -58 -11 -58 -28 0 -8 3
-15 8 -15 4 0 12 -11 19 -25 6 -14 7 -23 3 -20 -5 3 -10 0 -12 -7 -4 -10 -10
-10 -30 -1 -20 9 -25 18 -23 43 1 22 -2 29 -12 26 -31 -12 -10 6 24 20 27 12
33 18 23 24 -8 5 -18 6 -23 3 -5 -3 -3 4 4 15 7 12 17 18 21 16 4 -3 8 0 8 5
0 6 -8 11 -17 11 -13 0 -14 3 -5 12 7 7 12 17 12 22 0 6 -5 4 -10 -4 -5 -8
-10 -10 -10 -5 0 25 15 33 34 19 14 -10 16 -14 5 -14 -10 -1 -10 -4 4 -14 14
-11 15 -15 5 -19 -9 -4 -7 -6 4 -6 12 -1 16 6 15 27 -1 19 2 26 12 24 12 -3
12 0 1 12 -10 13 -10 16 0 16 14 0 4 14 -11 16 -5 1 -15 2 -21 3 -7 1 -2 7 12
13 l25 11 -25 7 c-14 5 -18 8 -10 9 9 1 24 11 34 23 15 17 16 20 2 15 -12 -5
-15 -1 -12 16 2 12 9 21 15 20 6 -2 11 1 11 7 0 6 -216 10 -590 10 -324 0
-590 -2 -590 -4z m1145 -158 c4 -3 2 -9 -3 -12 -5 -3 -15 1 -21 8 -10 11 -9
14 3 12 9 -1 18 -5 21 -8z m-311 -53 c-4 -8 -11 -15 -16 -15 -6 0 -5 6 2 15 7
8 14 15 16 15 2 0 1 -7 -2 -15z m20 -36 c-2 -4 3 -14 11 -22 18 -18 20 -31 3
-21 -6 4 -8 3 -5 -3 4 -6 0 -14 -9 -17 -12 -4 -15 -2 -10 9 8 22 0 18 -17 -9
-18 -26 -8 -29 30 -8 13 7 24 8 27 3 4 -5 0 -12 -6 -15 -7 -3 -3 -3 10 0 14 3
22 1 22 -7 0 -7 6 -4 15 7 13 18 14 18 8 -4 -4 -16 -1 -21 8 -19 8 2 11 2 7 0
-10 -6 -10 -33 -1 -33 3 0 15 7 25 17 11 9 18 11 18 5 0 -7 5 -12 11 -12 5 0
8 4 5 9 -4 5 0 8 6 7 7 -1 13 -6 13 -11 0 -6 -3 -9 -7 -7 -5 1 -8 -2 -8 -8 0
-5 -7 -10 -16 -10 -8 0 -13 -4 -9 -9 3 -5 -9 -2 -27 6 -34 17 -98 24 -98 11 0
-4 14 -8 31 -8 17 0 37 -6 45 -14 16 -17 19 -30 4 -21 -5 3 -29 8 -52 11 l-43
4 24 -18 c27 -22 18 -33 -22 -25 -26 5 -39 23 -17 23 6 0 2 9 -8 20 -12 13
-25 18 -35 14 -10 -3 -17 -1 -17 6 0 6 -4 9 -9 6 -11 -7 -9 13 2 32 5 6 4 12
-1 12 -6 0 -8 9 -5 20 3 12 0 20 -6 20 -7 0 -9 5 -6 10 4 6 11 8 16 5 17 -11
9 18 -8 32 -14 10 -14 13 -3 11 8 -2 20 -9 26 -17 8 -10 13 -11 18 -3 4 7 1
12 -6 13 -7 0 -4 4 7 9 24 10 66 9 59 -1z m46 -55 c0 -8 -5 -12 -10 -9 -6 4
-8 11 -5 16 9 14 15 11 15 -7z m42 5 c2 -2 1 -3 -1 -2 -2 2 -9 -2 -16 -7 -8
-7 -12 -5 -12 4 0 12 22 16 29 5z m-197 -27 c-3 -3 -11 0 -18 7 -9 10 -8 11 6
5 10 -3 15 -9 12 -12z m415 -92 c-20 -13 -33 -13 -25 0 3 6 14 10 23 10 15 0
15 -2 2 -10z m-149 -25 c-38 -17 -60 -20 -45 -6 9 9 38 18 64 19 8 1 0 -5 -19
-13z m-255 -21 c0 -1 -18 -4 -39 -8 -27 -5 -37 -4 -32 3 3 6 15 11 26 11 10 0
19 5 19 10 0 6 6 5 14 -2 8 -7 13 -14 12 -14z m-71 -35 c26 -1 -40 -31 -72
-33 -28 -2 -28 -2 -5 24 11 13 24 19 37 16 11 -3 29 -6 40 -7z m219 -83 c117
-9 87 -17 -54 -15 -144 3 -213 -6 -189 -23 10 -7 6 -8 -13 -4 -20 5 -47 -4
-102 -33 -41 -22 -69 -42 -63 -46 7 -3 1 -3 -12 -1 -13 3 -35 -3 -50 -12 l-26
-16 20 24 c36 42 53 58 58 53 3 -3 18 2 34 11 15 8 60 22 98 31 39 10 75 21
80 25 6 4 21 10 35 13 25 5 46 4 184 -7z m946 -16 c8 -5 10 -10 4 -10 -7 0
-22 9 -35 21 -19 16 -20 18 -4 10 11 -6 27 -15 35 -21z m-1250 6 c0 -2 -7 -7
-16 -10 -8 -3 -12 -2 -9 4 6 10 25 14 25 6z m490 -25 c0 -12 -56 -22 -77 -14
-14 6 -12 9 12 14 45 10 65 10 65 0z m-461 -28 c-13 -15 -12 -15 8 -5 12 7 28
12 35 11 7 0 2 -5 -12 -10 -35 -14 -8 -29 34 -19 17 5 51 11 76 14 51 7 46 1
-32 -40 -27 -13 -47 -28 -47 -32 1 -4 -2 -16 -6 -28 -5 -16 -13 -20 -31 -16
-13 2 -38 -5 -58 -16 -32 -19 -36 -19 -48 -4 -10 12 -10 14 0 8 7 -4 25 2 42
14 16 12 34 18 40 15 6 -3 7 1 4 9 -3 9 -10 13 -15 10 -19 -12 -69 -13 -69 -2
0 7 -9 2 -20 -10 -11 -12 -33 -24 -48 -27 -15 -3 -44 -15 -64 -26 -47 -24 -50
-12 -5 18 17 13 46 34 62 49 17 14 42 31 57 36 15 5 26 14 25 19 -2 8 59 47
77 48 5 1 2 -6 -5 -16z m211 13 c0 -3 -4 -8 -10 -11 -5 -3 -10 -1 -10 4 0 6 5
11 10 11 6 0 10 -2 10 -4z m1055 -6 c3 -5 2 -10 -4 -10 -5 0 -13 5 -16 10 -3
6 -2 10 4 10 5 0 13 -4 16 -10z m-974 -17 c13 -16 12 -17 -3 -4 -10 7 -18 15
-18 17 0 8 8 3 21 -13z m249 -60 c0 -7 -39 17 -46 28 -3 6 5 3 20 -6 14 -10
26 -19 26 -22z m-400 2 c-33 -19 -50 -18 -26 0 11 8 27 15 35 15 10 -1 7 -6
-9 -15z m260 -8 c19 -6 42 -10 50 -9 8 1 42 -7 75 -17 44 -14 53 -19 33 -20
-18 -1 -28 -7 -28 -16 0 -8 5 -15 11 -15 13 0 -6 -19 -44 -43 -29 -18 -28 -39
1 -36 36 3 47 -2 24 -12 -13 -5 -28 -7 -33 -3 -5 3 -9 0 -9 -5 0 -6 -5 -11
-11 -11 -5 0 -7 4 -4 10 3 6 -1 7 -9 4 -9 -3 -13 -10 -10 -15 3 -5 -4 -9 -14
-9 -27 0 -104 -35 -95 -43 3 -4 -1 -7 -9 -7 -9 0 -28 -7 -44 -14 -15 -8 -32
-12 -38 -9 -8 4 -8 2 -1 -5 13 -14 64 -2 104 25 46 31 71 42 71 32 0 -6 4 -8
8 -5 5 3 9 -1 9 -9 0 -8 -4 -12 -9 -9 -4 3 -8 1 -8 -4 0 -10 -37 -25 -53 -23
-5 1 -6 -3 -3 -8 4 -5 -18 -24 -48 -42 -30 -18 -53 -36 -50 -40 2 -4 -1 -11
-7 -15 -8 -4 -9 -3 -5 4 14 22 -10 12 -33 -14 -12 -14 -25 -23 -29 -19 -4 3 1
11 11 16 9 6 17 14 17 19 0 5 -26 -6 -57 -25 -31 -19 -60 -32 -65 -29 -4 3
-17 0 -28 -6 -11 -6 -20 -8 -20 -5 0 15 22 45 33 45 7 0 26 11 42 25 l30 26
-39 -16 c-48 -19 -52 -19 -36 0 7 8 8 15 2 15 -5 0 -15 -7 -22 -15 -7 -9 -15
-13 -18 -10 -3 3 -11 0 -19 -7 -7 -6 -16 -8 -20 -4 -8 8 37 56 53 56 7 0 17 7
22 16 5 9 13 15 18 14 5 -1 10 3 12 8 4 13 -48 8 -57 -4 -3 -5 -19 -15 -36
-22 l-30 -12 34 28 c28 24 31 30 17 35 -10 4 -15 3 -11 -3 3 -6 1 -10 -4 -10
-6 0 -12 8 -12 18 -1 16 -2 16 -6 0 -2 -10 -12 -18 -21 -18 -10 0 -13 3 -7 8
6 4 16 18 23 32 25 53 52 94 52 82 0 -7 -4 -22 -10 -32 -7 -13 -6 -22 3 -32 8
-7 12 -20 10 -28 -4 -13 -3 -13 6 0 9 13 11 13 11 -2 0 -19 25 -25 35 -8 4 6
10 8 15 5 4 -3 14 3 21 12 14 17 8 17 -51 2 -8 -2 -15 3 -15 11 0 8 9 15 20
16 11 1 32 2 48 3 32 1 71 36 63 57 -3 7 -2 13 3 11 5 -1 18 9 31 23 l22 25
-16 -27 c-19 -33 -20 -41 -3 -33 6 4 3 -1 -7 -9 -11 -9 -16 -19 -13 -23 4 -4
12 -2 18 4 6 6 18 9 25 6 8 -3 14 0 14 6 0 14 47 15 55 1 4 -6 15 -6 31 0 14
6 36 10 50 10 24 0 74 36 74 54 0 5 7 18 17 28 16 17 9 24 -19 19 -5 0 -8 4
-8 9 0 6 -20 10 -45 10 -25 0 -45 4 -45 8 0 5 -15 16 -32 26 -18 9 -24 14 -13
10 11 -3 36 -11 55 -17z m-600 -20 c0 -2 -20 -18 -45 -36 -25 -18 -45 -30 -45
-27 0 4 81 66 87 66 2 0 3 -1 3 -3z m160 -11 c0 -2 -7 -7 -16 -10 -8 -3 -12
-2 -9 4 6 10 25 14 25 6z m776 -28 l19 -23 -25 20 c-14 11 -27 21 -29 22 -2 2
0 3 6 3 5 0 18 -10 29 -22z m-762 -53 c-21 -19 -34 -35 -30 -35 4 0 -6 -16
-23 -35 -17 -20 -31 -42 -31 -50 0 -7 -5 -17 -12 -21 -7 -5 -9 -2 -4 7 4 8 1
6 -6 -5 -7 -10 -21 -28 -31 -40 -17 -20 -18 -20 -2 12 16 34 16 34 -7 27 l-23
-8 24 20 c19 15 21 22 11 28 -9 6 -11 4 -5 -5 6 -9 4 -11 -5 -5 -10 6 -9 11 6
23 18 13 18 14 -3 7 -34 -10 -28 2 17 31 22 15 37 31 34 35 -3 5 0 8 8 7 7 -2
12 3 10 10 -1 8 2 11 7 8 5 -3 29 5 53 19 55 31 61 15 12 -30z m502 33 c4 -5
-5 -8 -20 -8 -15 0 -25 -3 -23 -8 3 -4 -8 -7 -23 -7 -16 -1 -26 3 -24 7 3 4
-4 8 -15 8 -12 0 -21 3 -21 8 0 4 27 7 59 7 33 0 63 -3 67 -7z m763 -2 c10
-12 8 -13 -8 -9 -12 3 -18 9 -15 14 7 12 10 11 23 -5z m-1202 -14 c-10 -10
-14 -22 -10 -26 4 -4 0 -4 -9 -1 -9 4 -19 2 -23 -4 -3 -6 -2 -11 3 -11 5 0 9
-6 9 -14 0 -20 -23 -9 -24 12 -1 9 13 27 30 40 38 27 46 28 24 4z m563 -22
c11 -7 5 -8 -20 -4 -43 8 -51 14 -19 14 13 0 31 -5 39 -10z m-911 -13 c-2 -1
-29 -19 -59 -38 -62 -41 -94 -58 -67 -36 57 47 120 88 126 82 2 -3 2 -6 0 -8z
m1210 -19 c-12 -42 -12 -43 6 -28 13 10 18 11 28 1 9 -10 8 -11 -5 -6 -13 5
-18 2 -19 -11 -2 -35 3 -69 13 -87 5 -10 8 -21 5 -23 -6 -7 -42 56 -52 91 -13
48 -14 55 -4 49 5 -3 13 6 19 20 14 37 20 32 9 -6z m363 10 c-7 -7 -12 -8 -12
-2 0 6 3 14 7 17 3 4 9 5 12 2 2 -3 -1 -11 -7 -17z m-1285 -38 c10 -13 8 -16
-13 -18 -22 -2 -23 0 -13 19 6 11 12 19 13 17 1 -1 7 -10 13 -18z m1323 -5
c-13 -14 -26 -22 -29 -19 -3 3 5 14 18 25 33 27 39 24 11 -6z m-540 -35 c-24
-15 -36 -11 -14 4 10 8 21 12 24 10 2 -3 -2 -9 -10 -14z m467 2 c-10 -10 -17
-23 -17 -29 0 -5 -11 -20 -25 -33 -14 -13 -25 -19 -25 -13 0 14 62 92 74 92 5
1 2 -7 -7 -17z m-1286 -38 c-14 -23 -27 -41 -29 -39 -2 1 3 20 9 42 8 24 19
39 29 39 14 0 12 -7 -9 -42z m772 39 c-7 -2 -19 -2 -25 0 -7 3 -2 5 12 5 14 0
19 -2 13 -5z m-1173 -17 c0 -2 -7 -9 -15 -16 -13 -11 -14 -10 -9 4 5 14 24 23
24 12z m870 -157 c0 -5 -15 -16 -32 -24 -18 -7 -47 -27 -65 -44 -17 -18 -33
-28 -35 -24 -3 4 -3 2 -2 -4 3 -13 -34 -39 -50 -35 -4 2 -14 -3 -22 -9 -12
-10 -13 -8 -5 12 5 13 16 23 25 23 9 -1 16 2 16 6 0 13 35 47 45 44 6 -2 30
12 55 31 46 35 70 44 70 24z m-430 -63 c0 -2 -9 -6 -20 -9 -11 -3 -20 -1 -20
4 0 5 9 9 20 9 11 0 20 -2 20 -4z m360 -19 c0 -9 -52 -72 -60 -73 -6 -1 -16
-2 -22 -3 -10 -1 -9 -4 1 -10 10 -6 5 -11 -20 -17 -19 -4 -38 -7 -42 -6 -4 1
-18 -3 -30 -9 -15 -7 -13 -3 8 14 17 14 41 29 55 32 13 4 41 22 62 41 34 31
48 40 48 31z m-32 -107 c-7 -11 -19 -22 -28 -25 -8 -4 -4 5 9 19 29 31 36 33
19 6z m84 -102 c-11 -18 -20 -35 -19 -38 1 -3 -8 -21 -20 -40 -13 -19 -23 -28
-23 -20 -1 11 -4 10 -15 -4 -17 -23 -20 -14 -4 17 10 21 9 21 -10 -2 -37 -41
-22 -8 17 40 75 92 119 120 74 47z m-182 1 c-14 -11 -45 -34 -70 -51 l-45 -31
30 29 c36 36 87 72 100 73 6 0 -1 -9 -15 -20z m-1189 -406 c-12 -20 -14 -14
-5 12 4 9 9 14 11 11 3 -2 0 -13 -6 -23z m834 -443 c-3 -5 -14 -10 -23 -10
-15 0 -15 2 -2 10 20 13 33 13 25 0z m-111 -35 c-25 -19 -40 -19 -24 0 7 8 20
15 28 15 13 0 12 -3 -4 -15z m-107 -1217 c-3 -8 -6 -5 -6 6 -1 11 2 17 5 13 3
-3 4 -12 1 -19z m357 -533 c3 -9 0 -15 -9 -15 -8 0 -15 7 -15 15 0 8 4 15 9
15 5 0 11 -7 15 -15z m41 5 c-3 -5 -10 -10 -16 -10 -5 0 -9 5 -9 10 0 6 7 10
16 10 8 0 12 -4 9 -10z m-453 -162 c-17 -8 -26 -8 -34 0 -9 9 -4 12 23 11 32
0 33 -1 11 -11z"/>
<path d="M1975 4330 c-3 -6 1 -7 9 -4 18 7 21 14 7 14 -6 0 -13 -4 -16 -10z"/>
<path d="M1937 4307 c-8 -6 -6 -7 5 -4 9 3 18 1 20 -5 3 -8 11 -7 26 4 22 15
22 15 -9 14 -17 -1 -36 -5 -42 -9z"/>
<path d="M2510 4199 c0 -5 5 -7 10 -4 6 3 10 8 10 11 0 2 -4 4 -10 4 -5 0 -10
-5 -10 -11z"/>
<path d="M2204 4073 c-17 -12 -17 -13 2 -13 11 0 29 6 40 14 19 14 18 15 -3
13 -12 0 -29 -7 -39 -14z"/>
<path d="M1884 4098 l-19 -23 23 19 c21 18 27 26 19 26 -2 0 -12 -10 -23 -22z"/>
<path d="M2346 3573 c-6 -14 -5 -15 5 -6 7 7 10 15 7 18 -3 3 -9 -2 -12 -12z"/>
<path d="M2666 4684 c-9 -36 8 -53 24 -24 12 22 7 50 -9 50 -5 0 -12 -12 -15
-26z"/>
<path d="M3018 4563 c7 -3 16 -2 19 1 4 3 -2 6 -13 5 -11 0 -14 -3 -6 -6z"/>
<path d="M3210 4470 c0 -5 7 -10 16 -10 8 0 12 5 9 10 -3 6 -10 10 -16 10 -5
0 -9 -4 -9 -10z"/>
<path d="M2600 3961 c-19 -16 -31 -33 -27 -37 4 -5 18 4 30 20 21 26 28 28 90
28 37 0 67 4 67 9 0 5 -28 9 -62 9 -55 -1 -68 -4 -98 -29z"/>
<path d="M2553 3970 c-13 -5 -23 -14 -23 -20 0 -5 -3 -9 -7 -9 -20 3 -24 -2
-13 -16 15 -18 40 -7 64 30 18 27 14 29 -21 15z"/>
<path d="M2550 3900 c0 -5 4 -10 9 -10 6 0 13 5 16 10 3 6 -1 10 -9 10 -9 0
-16 -4 -16 -10z"/>
<path d="M2690 3869 c0 -5 4 -8 9 -5 4 3 16 -3 26 -14 19 -22 35 -26 35 -10 0
5 -13 16 -30 25 -34 18 -40 18 -40 4z"/>
<path d="M2800 3830 c8 -5 20 -10 25 -10 6 0 3 5 -5 10 -8 5 -19 10 -25 10 -5
0 -3 -5 5 -10z"/>
<path d="M2594 3815 c-18 -13 -18 -14 4 -8 12 3 25 9 28 14 8 14 -10 11 -32
-6z"/>
<path d="M2920 2845 c-5 -6 -23 -10 -40 -9 -24 2 -36 -5 -53 -28 -12 -17 -21
-35 -19 -40 1 -6 -2 -16 -8 -23 -8 -9 -8 -15 0 -20 6 -3 7 -12 4 -18 -4 -7 5
0 20 16 28 28 47 38 26 12 -7 -8 -9 -15 -4 -15 5 0 2 -5 -6 -10 -8 -5 -10 -10
-4 -10 6 0 14 3 18 7 3 4 25 8 49 9 23 1 62 8 87 17 25 8 71 13 103 12 46 -2
57 0 53 11 -3 8 0 14 7 14 8 0 6 4 -3 10 -13 8 -12 10 3 10 9 0 17 -4 17 -9 0
-5 8 -11 18 -14 9 -2 26 -8 37 -12 11 -3 8 1 -7 10 -16 8 -28 19 -28 24 0 12
-49 20 -56 10 -10 -17 -25 -9 -19 11 4 14 1 22 -11 27 -10 4 -19 2 -22 -5 -2
-8 -11 -8 -32 3 -33 17 -74 20 -65 5 3 -5 -1 -10 -9 -10 -9 0 -16 -4 -16 -10
0 -5 -5 -10 -10 -10 -6 0 -4 10 5 23 13 21 13 23 -6 23 -11 0 -24 -5 -29 -11z
m145 -46 c11 -17 2 -18 -19 -3 -17 12 -17 14 -4 14 9 0 20 -5 23 -11z"/>
<path d="M2132 2734 c9 -9 21 -15 27 -13 6 2 -2 10 -17 17 -25 11 -25 11 -10
-4z"/>
<path d="M2736 2725 c-9 -26 -7 -32 5 -12 6 10 9 21 6 23 -2 3 -7 -2 -11 -11z"/>
<path d="M2200 2695 c7 -9 15 -13 17 -11 7 7 -7 26 -19 26 -6 0 -6 -6 2 -15z"/>
<path d="M2865 2645 c-16 -7 -23 -14 -15 -14 8 0 29 6 45 14 17 7 23 14 15 14
-8 0 -28 -6 -45 -14z"/>
<path d="M2919 2630 c-41 -12 -68 -29 -80 -52 -12 -22 -12 -22 14 -5 39 25 47
21 47 -23 0 -22 5 -40 11 -40 6 0 8 9 4 20 -3 11 -4 20 -2 20 9 0 57 -49 57
-58 0 -16 -27 -21 -41 -9 -10 9 -10 8 1 -6 10 -13 25 -17 58 -15 61 3 95 32
96 81 1 20 2 37 3 37 5 0 78 -43 83 -49 3 -3 20 -14 38 -25 33 -18 34 -18 24
0 -22 40 -75 79 -152 112 -32 14 -128 21 -161 12z m21 -62 c0 -16 -3 -19 -11
-11 -6 6 -8 16 -5 22 11 17 16 13 16 -11z m84 -4 c9 -3 16 -10 16 -16 0 -5 -4
-6 -10 -3 -5 3 -10 -1 -10 -9 0 -9 9 -16 20 -16 20 0 26 -11 13 -23 -3 -4 -17
5 -30 19 -12 14 -23 22 -23 19 0 -4 -7 0 -15 9 -8 8 -15 17 -15 20 0 8 34 8
54 0z"/>
<path d="M1841 2580 c-56 -20 -125 -76 -115 -92 3 -5 -1 -19 -9 -31 -34 -53
-30 -83 11 -78 6 1 12 -2 12 -7 0 -10 70 -13 85 -4 5 4 16 7 23 8 8 2 17 6 20
10 4 3 -11 3 -32 0 -35 -7 -38 -6 -27 7 10 13 9 17 -6 26 -17 10 -17 10 0 11
10 0 17 8 17 20 0 13 10 24 26 30 33 13 34 13 34 -4 0 -28 50 -76 79 -76 77 0
129 50 116 112 -7 29 -6 30 20 24 20 -5 26 -3 23 6 -4 11 -86 40 -113 39 -61
-2 -106 -10 -132 -24 -18 -10 -45 -22 -60 -27 l-28 -10 29 24 c16 13 50 31 75
39 25 9 37 16 26 16 -11 0 -45 -9 -74 -19z m179 -79 c0 -16 -28 -20 -34 -5 -4
9 1 14 14 14 11 0 20 -4 20 -9z m30 -11 c0 -5 -2 -10 -4 -10 -3 0 -8 5 -11 10
-3 6 -1 10 4 10 6 0 11 -4 11 -10z m-15 -48 c-3 -3 -11 0 -18 7 -9 10 -8 11 6
5 10 -3 15 -9 12 -12z"/>
<path d="M2159 2500 c19 -18 31 -37 27 -45 -6 -17 32 -31 46 -17 13 13 -13 54
-30 47 -7 -3 -10 0 -7 5 3 6 0 10 -8 10 -8 0 -20 7 -27 15 -7 8 -17 15 -23 15
-7 0 3 -14 22 -30z"/>
<path d="M1877 2373 c-4 -3 -7 -13 -7 -22 1 -13 2 -13 11 2 6 9 15 14 21 11 7
-4 8 -2 4 4 -8 13 -19 15 -29 5z"/>
<path d="M1926 2364 c-5 -14 -4 -15 9 -4 17 14 19 20 6 20 -5 0 -12 -7 -15
-16z"/>
<path d="M2190 1896 c-6 -19 -8 -50 -5 -69 8 -39 73 -116 105 -122 12 -2 28
-12 35 -21 8 -12 14 -14 19 -5 5 8 12 7 23 -4 11 -12 18 -13 29 -4 7 6 18 8
24 4 5 -3 10 -1 10 5 0 7 7 10 15 6 8 -3 25 -2 37 3 21 8 21 8 -5 15 -15 3
-42 20 -60 36 -46 40 -126 70 -98 36 16 -19 -10 -39 -42 -31 -49 13 -70 48
-71 120 -1 36 -2 65 -3 65 -1 0 -7 -15 -13 -34z"/>
<path d="M3891 1843 c-52 -109 -58 -117 -90 -136 -17 -11 -58 -21 -91 -24 -33
-3 -60 -7 -60 -9 0 -30 -33 -241 -41 -261 -15 -38 -12 -180 7 -305 8 -56 19
-153 23 -214 6 -101 9 -114 38 -158 53 -80 67 -136 68 -271 0 -130 -8 -171
-70 -355 -19 -57 -35 -105 -35 -107 0 -2 308 -3 685 -3 l685 0 0 213 0 212
-193 64 c-105 35 -254 88 -329 117 -76 30 -151 54 -167 54 -17 0 -43 5 -58 11
-78 32 -270 126 -287 141 -17 16 -17 18 -2 33 9 9 16 19 16 23 0 12 52 67 61
65 5 -2 9 2 9 9 0 6 29 39 64 72 36 34 67 72 70 86 3 14 8 36 11 50 9 36 13
143 6 155 -3 6 -7 19 -8 29 -2 11 -15 34 -28 52 -14 18 -28 47 -31 64 -4 17
-11 33 -15 36 -5 3 -9 16 -9 29 0 13 -4 26 -9 30 -6 3 -8 14 -6 25 2 11 0 22
-6 25 -5 4 -9 12 -9 20 0 8 -4 24 -9 37 -5 13 -9 28 -10 33 -1 6 -12 21 -24
34 -12 13 -16 20 -8 16 16 -9 -24 63 -44 80 -6 6 -20 29 -31 52 -10 23 -24 43
-30 43 -6 0 -25 -30 -43 -67z"/>
<path d="M2700 1801 c0 -5 9 -7 20 -4 11 3 20 7 20 9 0 2 -9 4 -20 4 -11 0
-20 -4 -20 -9z"/>
<path d="M1287 1794 c-8 -8 3 -34 14 -34 5 0 9 9 9 20 0 19 -11 26 -23 14z"/>
<path d="M2280 1680 c0 -5 5 -10 11 -10 5 0 7 5 4 10 -3 6 -8 10 -11 10 -2 0
-4 -4 -4 -10z"/>
<path d="M2305 1650 c-3 -6 1 -7 9 -4 18 7 21 14 7 14 -6 0 -13 -4 -16 -10z"/>
<path d="M2270 1590 c0 -13 11 -13 30 0 12 8 11 10 -7 10 -13 0 -23 -4 -23
-10z"/>
<path d="M2240 1570 c-1 -22 -2 -23 -11 -7 -11 18 -29 23 -29 7 0 -5 9 -14 19
-19 24 -13 45 7 31 29 -8 12 -10 9 -10 -10z"/>
<path d="M1540 1570 c0 -5 7 -7 15 -4 8 4 15 8 15 10 0 2 -7 4 -15 4 -8 0 -15
-4 -15 -10z"/>
<path d="M2940 1430 c-19 -6 -12 -8 29 -9 30 -1 52 1 50 3 -11 9 -57 13 -79 6z"/>
<path d="M2753 1389 c-59 -11 -93 -32 -38 -23 44 8 119 33 95 32 -8 0 -34 -4
-57 -9z"/>
<path d="M2169 1370 c-33 -8 -34 -26 -2 -36 34 -9 368 -5 414 6 36 8 33 8
-170 9 -50 0 -87 4 -91 11 -7 11 -115 19 -151 10z"/>
<path d="M1909 1178 c-8 -27 -2 -59 13 -64 10 -3 18 -12 18 -19 0 -13 37 -45
52 -45 4 0 2 11 -4 25 -6 14 -17 25 -23 25 -16 0 -39 55 -30 69 3 6 -1 11 -9
11 -9 0 -16 -1 -17 -2z"/>
<path d="M1859 1128 c-8 -27 -5 -38 11 -38 13 0 17 5 13 20 -4 16 -21 28 -24
18z"/>
<path d="M3375 1009 c-12 -19 5 -23 22 -6 16 16 16 17 1 17 -9 0 -20 -5 -23
-11z"/>
<path d="M3341 963 c0 -7 -8 -13 -16 -13 -8 0 -15 -7 -15 -15 0 -8 -4 -15 -10
-15 -5 0 -15 -10 -21 -22 -11 -21 -10 -20 19 4 17 14 36 28 43 30 6 2 9 13 6
23 -2 11 -5 14 -6 8z"/>
</g>
</svg>
